# Blender v2.69 (sub 0) OBJ File: ''
# www.blender.org
mtllib mundo.mtl
v 0.000000 2.249984 3.000002
v 0.438953 2.206799 -48.000000
v 0.438953 2.206751 3.000002
v 0.861038 2.078761 -48.000000
v 0.861038 2.078712 3.000002
v 1.250033 1.870839 -48.000000
v 1.250033 1.870790 3.000002
v 1.590990 1.591023 -48.000000
v 1.590990 1.590973 3.000002
v 1.870807 1.250065 -48.000000
v 1.870807 1.250017 3.000000
v 2.078729 0.861070 -48.000000
v 2.078729 0.861021 3.000000
v 2.206767 0.438986 -48.000000
v 2.206767 0.438937 3.000000
v 2.250000 0.000032 -48.000000
v 2.250000 -0.000016 3.000000
v 2.206767 -0.438921 -48.000000
v 2.206767 -0.438969 3.000000
v 2.078729 -0.861005 -48.000000
v 2.078729 -0.861054 3.000000
v 1.870807 -1.250001 -48.000000
v 1.870807 -1.250049 3.000000
v 1.590990 -1.590958 -48.000000
v 1.590990 -1.591007 2.999998
v 1.250033 -1.870774 -48.000000
v 1.250033 -1.870824 2.999998
v 0.861037 -2.078697 -48.000000
v 0.861037 -2.078745 2.999998
v 0.438953 -2.206735 -48.000000
v 0.438953 -2.206784 2.999998
v -0.000001 -2.249968 -48.000000
v -0.000001 -2.250016 2.999998
v -0.438954 -2.206734 -48.000000
v -0.438954 -2.206784 2.999998
v -0.861039 -2.078696 -48.000000
v -0.861039 -2.078745 2.999998
v -1.250034 -1.870774 -48.000000
v -1.250034 -1.870822 2.999998
v -1.590991 -1.590957 -48.000000
v -1.590991 -1.591007 2.999998
v -1.870808 -1.249999 -48.000000
v -1.870808 -1.250049 3.000000
v -2.078730 -0.861004 -48.000000
v -2.078730 -0.861052 3.000000
v -2.206767 -0.438919 -48.000000
v -2.206767 -0.438968 3.000000
v -2.250000 0.000034 -48.000000
v -2.250000 -0.000014 3.000000
v -2.206766 0.438988 -48.000000
v -2.206766 0.438939 3.000000
v -2.078728 0.861072 -48.000000
v -2.078728 0.861024 3.000000
v -1.870805 1.250068 -48.000000
v -1.870805 1.250018 3.000000
v -1.590988 1.590976 3.000002
v -1.590988 1.591025 -48.000000
v -1.250031 1.870792 3.000002
v -0.861035 2.078762 -48.000000
v -0.861035 2.078712 3.000002
v -0.438950 2.206751 3.000002
v -0.438950 2.206800 -48.000000
v 0.000000 2.250032 -48.000000
v -1.250031 1.870841 -48.000000
vt 0.499418 4.431746
vt 0.425342 -3.435227
vt 0.436898 4.432742
vt 0.362821 -3.434229
vt 0.374377 4.433743
vt 0.300301 -3.433231
vt 0.311857 4.434737
vt 0.237780 -3.432234
vt 0.249337 4.435737
vt 0.175260 -3.431236
vt 0.186816 4.436734
vt 0.112739 -3.430238
vt 0.124295 4.437732
vt 0.050218 -3.429240
vt 0.061775 4.438733
vt -0.012303 -3.428242
vt -0.000745 4.439730
vt 0.097961 0.980849
vt 0.097207 0.973150
vt 0.097207 0.980849
vt 0.096452 0.973150
vt 0.096452 0.980849
vt 0.095698 0.973150
vt 0.095698 0.980849
vt 0.094943 0.973150
vt 0.094943 0.980849
vt 0.094188 0.973150
vt 0.094188 0.980849
vt 0.093434 0.973150
vt 0.093434 0.980849
vt 0.092679 0.973150
vt 0.092679 0.980849
vt 0.091924 0.973150
vt 0.091924 0.980849
vt 0.091170 0.973150
vt 0.091170 0.980849
vt 0.090415 0.973150
vt 0.090415 0.980849
vt 0.089660 0.973150
vt 0.089660 0.980849
vt 0.088906 0.973150
vt 0.088906 0.980849
vt 0.088151 0.973150
vt 0.088151 0.980849
vt 0.087396 0.973150
vt 0.087396 0.980849
vt 0.086642 0.973150
vt 0.086642 0.980849
vt 0.085887 0.973150
vt 0.085887 0.980849
vt 0.999581 4.423774
vt 0.925507 -3.443194
vt 0.937060 4.424770
vt 0.862986 -3.442200
vt 0.874540 4.425765
vt 0.800466 -3.441203
vt 0.812019 4.426760
vt 0.749498 4.427756
vt 0.737945 -3.440207
vt 0.686978 4.428753
vt 0.612903 -3.438216
vt 0.624458 4.429750
vt 0.013501 0.976199
vt 0.018352 0.980179
vt 0.017917 0.975764
vt 0.550383 -3.437221
vt 0.561937 4.430747
vt 0.049408 0.972044
vt 0.048763 0.965492
vt 0.042856 0.972689
vt 0.487863 -3.436222
vt 0.097962 0.973150
vt 0.988027 -3.444190
vt 0.675424 -3.439211
vt 0.016234 0.981311
vt 0.017917 0.980614
vt 0.017405 0.980956
vt 0.016837 0.981191
vt 0.015016 0.981191
vt 0.015619 0.981311
vt 0.013936 0.980614
vt 0.014448 0.980956
vt 0.012804 0.978497
vt 0.013501 0.980179
vt 0.013160 0.979668
vt 0.012924 0.979100
vt 0.012804 0.977882
vt 0.012924 0.977279
vt 0.013160 0.976710
vt 0.014448 0.975423
vt 0.013936 0.975764
vt 0.015016 0.975187
vt 0.015619 0.975067
vt 0.016837 0.975187
vt 0.016234 0.975067
vt 0.017405 0.975423
vt 0.019049 0.977882
vt 0.018352 0.976199
vt 0.018693 0.976710
vt 0.018929 0.977279
vt 0.018929 0.979100
vt 0.019049 0.978497
vt 0.018693 0.979668
vt 0.042211 0.966137
vt 0.043615 0.964985
vt 0.042856 0.965492
vt 0.044458 0.964635
vt 0.045353 0.964458
vt 0.046266 0.964458
vt 0.047161 0.964635
vt 0.048004 0.964985
vt 0.049915 0.966896
vt 0.049408 0.966137
vt 0.050442 0.968634
vt 0.050264 0.967739
vt 0.050442 0.969547
vt 0.050264 0.970442
vt 0.049915 0.971285
vt 0.048004 0.973196
vt 0.048763 0.972689
vt 0.047161 0.973545
vt 0.046266 0.973723
vt 0.044458 0.973545
vt 0.045353 0.973723
vt 0.043615 0.973196
vt 0.041704 0.971285
vt 0.042211 0.972044
vt 0.041177 0.969547
vt 0.041355 0.970442
vt 0.041355 0.967739
vt 0.041177 0.968634
vt 0.041704 0.966896
vn 0.000000 -0.727866 -0.685690
vn -0.142003 -0.713889 0.685690
vn -0.142003 -0.713889 -0.685690
vn -0.278542 -0.672475 0.685690
vn -0.278542 -0.672475 -0.685690
vn -0.404370 -0.605213 0.685690
vn -0.404370 -0.605213 -0.685690
vn -0.514664 -0.514695 0.685690
vn -0.514664 -0.514664 -0.685690
vn -0.605213 -0.404370 0.685690
vn -0.605213 -0.404370 -0.685659
vn -0.672414 -0.278542 0.685720
vn -0.672475 -0.278542 -0.685690
vn -0.713889 -0.142003 0.685690
vn -0.713889 -0.142003 -0.685690
vn -0.727866 0.000000 0.685690
vn -0.727866 0.000000 -0.685690
vn -0.713889 0.142003 0.685690
vn -0.713889 0.142003 -0.685690
vn -0.672384 0.278573 0.685751
vn -0.672475 0.278542 -0.685690
vn -0.605213 0.404370 0.685690
vn -0.605182 0.404370 -0.685690
vn -0.514664 0.514695 0.685690
vn -0.514695 0.514695 -0.685690
vn -0.404370 0.605213 0.685690
vn -0.404370 0.605213 -0.685690
vn -0.278542 0.672475 0.685690
vn -0.278542 0.672475 -0.685690
vn -0.142003 0.713889 0.685690
vn -0.142003 0.713889 -0.685690
vn 0.000000 0.727866 0.685690
vn 0.000000 0.727866 -0.685690
vn 0.142003 0.713889 0.685690
vn 0.142003 0.713889 -0.685690
vn 0.278542 0.672475 0.685690
vn 0.278542 0.672475 -0.685690
vn 0.404370 0.605213 0.685690
vn 0.404370 0.605213 -0.685690
vn 0.514664 0.514664 0.685690
vn 0.514695 0.514695 -0.685690
vn 0.605213 0.404370 0.685690
vn 0.605213 0.404370 -0.685690
vn 0.672475 0.278542 0.685690
vn 0.672475 0.278542 -0.685690
vn 0.713889 0.141972 0.685690
vn 0.713889 0.142003 -0.685690
vn 0.727897 0.000000 0.685659
vn 0.727866 0.000000 -0.685690
vn 0.713889 -0.142003 0.685690
vn 0.713889 -0.142003 -0.685690
vn 0.672414 -0.278542 0.685720
vn 0.672475 -0.278542 -0.685690
vn 0.605213 -0.404370 0.685690
vn 0.605213 -0.404370 -0.685659
vn 0.514664 -0.514664 -0.685690
vn 0.514664 -0.514695 0.685690
vn 0.404370 -0.605213 -0.685690
vn 0.278512 -0.672475 0.685690
vn 0.278542 -0.672475 -0.685690
vn 0.141972 -0.713889 0.685690
vn 0.142003 -0.713889 -0.685690
vn 0.000000 -0.727866 0.685690
vn 0.404370 -0.605213 0.685690
usemtl None
s 1
f 1/1/1 2/2/2 3/3/3
f 3/3/3 4/4/4 5/5/5
f 5/5/5 6/6/6 7/7/7
f 7/7/7 8/8/8 9/9/9
f 9/9/9 10/10/10 11/11/11
f 11/11/11 12/12/12 13/13/13
f 13/13/13 14/14/14 15/15/15
f 15/15/15 16/16/16 17/17/17
f 17/18/17 18/19/18 19/20/19
f 19/20/19 20/21/20 21/22/21
f 21/22/21 22/23/22 23/24/23
f 23/24/23 24/25/24 25/26/25
f 25/26/25 26/27/26 27/28/27
f 27/28/27 28/29/28 29/30/29
f 29/30/29 30/31/30 31/32/31
f 31/32/31 32/33/32 33/34/33
f 33/34/33 34/35/34 35/36/35
f 35/36/35 36/37/36 37/38/37
f 37/38/37 38/39/38 39/40/39
f 39/40/39 40/41/40 41/42/41
f 41/42/41 42/43/42 43/44/43
f 43/44/43 44/45/44 45/46/45
f 45/46/45 46/47/46 47/48/47
f 47/48/47 48/49/48 49/50/49
f 49/51/49 50/52/50 51/53/51
f 51/53/51 52/54/52 53/55/53
f 53/55/53 54/56/54 55/57/55
f 54/56/54 56/58/56 55/57/55
f 57/59/57 58/60/58 56/58/56
f 58/60/58 59/61/59 60/62/60
f 37/63/37 5/64/5 21/65/21
f 62/66/61 1/1/1 61/67/62
f 60/62/60 62/66/61 61/67/62
f 30/68/30 14/69/14 46/70/46
f 2/2/2 1/1/1 63/71/63
f 2/2/2 4/4/4 3/3/3
f 4/4/4 6/6/6 5/5/5
f 6/6/6 8/8/8 7/7/7
f 8/8/8 10/10/10 9/9/9
f 10/10/10 12/12/12 11/11/11
f 12/12/12 14/14/14 13/13/13
f 14/14/14 16/16/16 15/15/15
f 16/72/16 18/19/18 17/18/17
f 18/19/18 20/21/20 19/20/19
f 20/21/20 22/23/22 21/22/21
f 22/23/22 24/25/24 23/24/23
f 24/25/24 26/27/26 25/26/25
f 26/27/26 28/29/28 27/28/27
f 28/29/28 30/31/30 29/30/29
f 30/31/30 32/33/32 31/32/31
f 32/33/32 34/35/34 33/34/33
f 34/35/34 36/37/36 35/36/35
f 36/37/36 38/39/38 37/38/37
f 38/39/38 40/41/40 39/40/39
f 40/41/40 42/43/42 41/42/41
f 42/43/42 44/45/44 43/44/43
f 44/45/44 46/47/46 45/46/45
f 46/47/46 48/49/48 47/48/47
f 48/73/48 50/52/50 49/51/49
f 50/52/50 52/54/52 51/53/51
f 52/54/52 54/56/54 53/55/53
f 57/59/57 56/58/56 54/56/54
f 64/74/64 58/60/58 57/59/57
f 64/74/64 59/61/59 58/60/58
f 5/64/5 60/75/60 3/76/3
f 1/77/1 60/75/60 61/78/62
f 60/75/60 56/79/56 58/80/58
f 56/79/56 53/81/53 55/82/55
f 53/81/53 45/83/45 51/84/51
f 49/85/49 45/83/45 47/86/47
f 45/83/45 37/63/37 43/87/43
f 41/88/41 37/63/37 39/89/39
f 37/63/37 33/90/33 35/91/35
f 33/90/33 37/63/37 31/92/31
f 29/93/29 25/94/25 27/95/27
f 25/94/25 21/65/21 23/96/23
f 21/65/21 13/97/13 19/98/19
f 17/99/17 13/97/13 15/100/15
f 13/97/13 9/101/9 11/102/11
f 9/101/9 5/64/5 7/103/7
f 60/75/60 1/77/1 3/76/3
f 60/75/60 5/64/5 56/79/56
f 51/84/51 45/83/45 49/85/49
f 43/87/43 37/63/37 41/88/41
f 37/63/37 29/93/29 31/92/31
f 29/93/29 21/65/21 25/94/25
f 19/98/19 13/97/13 17/99/17
f 13/97/13 5/64/5 9/101/9
f 5/64/5 53/81/53 56/79/56
f 53/81/53 37/63/37 45/83/45
f 37/63/37 21/65/21 29/93/29
f 21/65/21 5/64/5 13/97/13
f 5/64/5 37/63/37 53/81/53
f 63/71/63 1/1/1 62/66/61
f 59/61/59 62/66/61 60/62/60
f 62/104/61 2/105/2 63/106/63
f 2/105/2 62/104/61 4/107/4
f 6/108/6 14/69/14 8/109/8
f 10/110/10 14/69/14 12/111/12
f 14/69/14 18/112/18 16/113/16
f 18/112/18 22/114/22 20/115/20
f 22/114/22 30/68/30 24/116/24
f 26/117/26 30/68/30 28/118/28
f 30/68/30 34/119/34 32/120/32
f 34/119/34 30/68/30 36/121/36
f 38/122/38 42/123/42 40/124/40
f 42/123/42 46/70/46 44/125/44
f 46/70/46 50/126/50 48/127/48
f 50/126/50 54/128/54 52/129/52
f 54/128/54 64/130/64 57/131/57
f 64/130/64 54/128/54 59/132/59
f 62/104/61 6/108/6 4/107/4
f 8/109/8 14/69/14 10/110/10
f 14/69/14 30/68/30 18/112/18
f 24/116/24 30/68/30 26/117/26
f 30/68/30 38/122/38 36/121/36
f 38/122/38 30/68/30 42/123/42
f 46/70/46 62/104/61 50/126/50
f 54/128/54 62/104/61 59/132/59
f 62/104/61 14/69/14 6/108/6
f 18/112/18 30/68/30 22/114/22
f 30/68/30 46/70/46 42/123/42
f 50/126/50 62/104/61 54/128/54
f 62/104/61 46/70/46 14/69/14
