# Blender v2.76 (sub 0) OBJ File: ''
# www.blender.org
mtllib pared.mtl
o Cube.001
v 0.299772 0.000005 -110.438370
v 0.299781 -0.000005 110.438385
v -0.299772 -0.000005 110.438332
v -0.299772 2.999995 110.438370
v 0.299781 2.999995 110.438408
v 0.299772 3.000005 -110.438301
v -0.299781 3.000005 -110.438423
v -0.299781 0.000005 -110.438370
vn 0.000000 -1.000000 -0.000000
vn -0.000000 1.000000 0.000000
vn 0.000200 0.000000 -1.000000
vn 0.000000 -0.000000 -1.000000
vn 1.000000 -0.000000 -0.000000
vn -0.000100 -0.000000 1.000000
vn -1.000000 -0.000000 0.000000
usemtl Material.001
s 1
f 1//1 2//1 3//1
f 4//2 5//2 6//2
f 7//3 6//3 1//4
f 6//5 5//5 2//5
f 5//6 4//6 3//6
f 8//7 3//7 4//7
f 8//1 1//1 3//1
f 7//2 4//2 6//2
f 8//4 7//3 1//4
f 1//5 6//5 2//5
f 2//6 5//6 3//6
f 7//7 8//7 4//7
