# Blender v2.76 (sub 0) OBJ File: ''
# www.blender.org
mtllib techo.mtl
o Cube.003
v 2.258744 -0.000000 3.334348
v -2.369855 -0.000000 3.338160
v -2.369855 -0.000000 3.338160
v 2.258744 -0.000000 3.334348
v -2.412138 0.000002 -47.982029
v -2.412138 0.000002 -47.982029
v 2.216461 0.000002 -47.985840
v 2.216461 0.000002 -47.985840
vt 1.000000 0.000000
vt 1.000000 0.321253
vt 0.993458 0.321253
vt 0.986916 1.000000
vt 0.986916 0.000000
vt 0.993458 0.000000
vt 0.993458 0.642507
vt 0.980374 1.000000
vt -0.002767 -0.007003
vt 0.984951 -0.007436
vt 0.988594 1.003983
vt -0.002014 0.008251
vt 0.993819 0.009342
vt 0.999534 1.004859
vt 0.993458 1.000000
vt 1.000000 0.642507
vt 0.980374 0.000000
vt 0.000876 1.004416
vt 0.003701 1.003768
vn 0.000000 0.000000 1.000000
vn 0.000000 0.000000 0.000000
vn -0.000000 -1.000000 -0.000000
vn 0.000000 1.000000 0.000000
usemtl None.001
s 1
f 1/1/1 2/2/1 3/3/1
f 2/4/2 5/5/2 6/6/2
f 5/7/1 7/3/1 8/2/1
f 7/5/2 1/4/2 4/8/2
f 3/9/3 6/10/3 8/11/3
f 5/12/4 2/13/4 1/14/4
f 4/6/1 1/1/1 3/3/1
f 3/15/2 2/4/2 6/6/2
f 6/16/1 5/7/1 8/2/1
f 8/17/2 7/5/2 4/8/2
f 4/18/3 3/9/3 8/11/3
f 7/19/4 5/12/4 1/14/4
